<svg width="102" height="30" viewBox="0 0 102 30" fill="none" xmlns="http://www.w3.org/2000/svg">
<path d="M23.2716 11.6315C23.2448 11.5077 23.1443 11.4545 23.0704 11.385C20.8081 9.26779 18.5419 7.15363 16.2835 5.03271C16.1131 4.87291 16.0204 4.84258 15.8303 5.02119C12.3494 8.28744 8.86129 11.5468 5.36862 14.8011C5.19151 14.9661 5.20605 15.0466 5.37419 15.2033C8.86627 18.4585 12.3539 21.718 15.8359 24.9826C16.0063 25.1425 16.0941 25.1488 16.2667 24.9848C17.3211 23.983 18.3844 22.9903 19.4549 22.0032C19.6302 21.8418 19.6521 21.7519 19.4632 21.5785C18.3978 20.6008 17.3529 19.6049 16.2874 18.6277C16.0913 18.4475 16.0695 18.3578 16.2802 18.1629C18.5458 16.0635 20.7997 13.9519 23.0559 11.8436C23.1314 11.773 23.2028 11.6988 23.2716 11.6315ZM23.2666 25.2548C22.1161 26.3223 20.9612 27.3866 19.8164 28.4594C19.2671 28.9749 18.6598 29.4094 17.9245 29.6528C15.9131 30.3207 14.0463 30.046 12.5187 28.6454C8.80652 25.2401 5.13785 21.7933 1.47704 18.3389C-0.498672 16.4749 -0.49028 13.5138 1.4899 11.6478C5.13727 8.21018 8.80149 4.78783 12.4785 1.37732C14.4547 -0.455292 17.625 -0.459943 19.6146 1.36844C22.0971 3.65022 24.5589 5.9524 27.0022 8.27074C28.9343 10.1044 28.9802 13.0129 27.0626 14.8716C24.8031 17.0604 22.4721 19.1856 20.1729 21.3388C20.0891 21.4171 20.012 21.5012 19.9309 21.5826C19.7041 21.706 19.7085 21.8157 19.9013 21.9922C20.9712 22.9756 22.029 23.9705 23.0866 24.9659C23.1694 25.0432 23.3213 25.0976 23.2666 25.2548" fill="#82CE41"/>
<path d="M38.3208 12.3863C38.3208 13.5076 38.327 14.6284 38.3158 15.7497C38.3135 15.9638 38.3795 16.0192 38.6046 16.0176C40.0635 16.0082 41.5218 16.015 42.9806 16.0119C43.3489 16.0108 43.7132 15.9742 44.069 15.8787C45.6464 15.4546 46.656 14.1301 46.7002 12.4454C46.7521 10.4702 45.3564 8.69548 42.8427 8.75086C41.4385 8.78162 40.0333 8.76333 38.6287 8.7497C38.3627 8.74716 38.313 8.82505 38.3152 9.05376C38.3276 10.1646 38.3208 11.2755 38.3208 12.3863V12.3863ZM35.2093 15.0416C35.2093 12.202 35.2143 9.36184 35.2014 6.52235C35.2002 6.24756 35.2802 6.19641 35.5573 6.19747C38.0655 6.20846 40.5742 6.2 43.0824 6.20529C44.6608 6.20846 46.1157 6.58703 47.3584 7.53081C48.8664 8.67508 49.6 10.1996 49.7174 11.979C49.8492 13.9671 49.2173 15.7106 47.6053 17.0716C46.409 18.0826 44.9642 18.5442 43.3707 18.5751C41.8358 18.6049 40.2998 18.5924 38.765 18.5793C38.4655 18.5767 38.3671 18.6258 38.3705 18.9318C38.3907 20.4877 38.375 22.0446 38.385 23.6003C38.3861 23.8271 38.342 23.9121 38.0733 23.9059C37.2301 23.8877 36.3864 23.8892 35.5434 23.9054C35.2773 23.9106 35.2019 23.8448 35.2031 23.5914C35.2131 20.7414 35.2093 17.8915 35.2093 15.0416" fill="white"/>
<path d="M68.1626 16.2551C68.1626 15.6122 68.1524 15.0256 68.1682 14.4402C68.1738 14.2454 68.1055 14.1556 67.9145 14.0908C66.849 13.7288 65.7523 13.5942 64.6326 13.7394C63.0357 13.9467 61.9215 14.7436 61.4348 16.2059C61.0856 17.2547 61.1063 18.316 61.4651 19.3658C62.1774 21.4532 64.1877 21.8972 65.7522 21.4846C67.02 21.1503 67.6363 20.2432 67.9642 19.1218C68.2441 18.1604 68.1459 17.1758 68.1626 16.2551V16.2551ZM68.6225 21.5859C68.4158 21.8266 68.2732 22.0945 68.0754 22.3285C67.0317 23.561 65.636 24.109 63.9889 24.0634C61.0365 23.9821 59.0067 22.2784 58.4266 19.4691C58.1305 18.0319 58.1423 16.6112 58.7184 15.2351C59.5513 13.2443 61.179 12.1078 63.3653 11.6717C65.9472 11.1557 68.4291 11.5672 70.8322 12.5199C71.0188 12.5936 71.0127 12.7105 71.0121 12.8536C71.0111 15.3908 71.0111 17.9279 71.0121 20.4656C71.0121 20.6672 71.0076 20.8703 71.0289 21.0714C71.0943 21.6924 71.3916 21.9702 72.0609 21.952C72.3888 21.9432 72.4224 22.0543 72.4118 22.305C72.3934 22.7391 72.4067 23.1741 72.4073 23.6091C72.4073 23.7203 72.4257 23.8284 72.2481 23.852C71.5385 23.9465 70.8283 24.005 70.1215 23.8467C69.1984 23.6405 68.6704 23.0189 68.6235 22.1008C68.6151 21.9295 68.6225 21.7578 68.6225 21.5859" fill="white"/>
<path d="M89.1637 21.5135H91.0075C92.5105 21.5135 94.0135 21.5177 95.5165 21.5093C95.7299 21.5083 95.8194 21.5401 95.8131 21.7674C95.7953 22.4034 95.8015 23.0411 95.8104 23.6778C95.8131 23.8439 95.7719 23.9034 95.5801 23.9034C92.1199 23.8981 88.6596 23.8998 85.1989 23.8987C84.971 23.8987 84.8615 23.5482 85.0028 23.2689C85.0346 23.2057 85.0834 23.1498 85.1241 23.0902C87.1651 20.0941 89.1961 17.092 91.4031 14.1986C91.4506 14.1365 91.4937 14.0712 91.5674 13.9673H91.2035C89.3548 13.9673 87.5054 13.9625 85.6566 13.9731C85.4135 13.9741 85.348 13.9198 85.356 13.6921C85.3749 13.1165 85.3711 12.5399 85.3575 11.9639C85.3531 11.7702 85.404 11.7116 85.6203 11.7121C88.9295 11.7189 92.239 11.721 95.5478 11.71C95.8226 11.7091 95.8439 11.8109 95.8255 12.0072C95.8137 12.1279 95.7333 12.2098 95.6701 12.3012C93.5882 15.3205 91.5322 18.3553 89.3191 21.2942C89.2771 21.3501 89.2387 21.408 89.1637 21.5135" fill="white"/>
<path d="M75.6924 16.962C75.6924 16.0621 75.6851 15.1623 75.6981 14.263C75.7008 14.0399 75.6601 13.9516 75.3907 13.96C74.699 13.9809 74.0061 13.961 73.3139 13.9704C73.1178 13.9731 73.0279 13.9459 73.034 13.7297C73.0517 13.1437 73.0507 12.5567 73.0346 11.9707C73.0283 11.7581 73.1144 11.7242 73.3145 11.7268C73.9955 11.7373 74.6783 11.7121 75.3583 11.7394C75.6628 11.7513 75.7041 11.6531 75.6992 11.404C75.6818 10.6159 75.7046 9.82677 75.6851 9.03866C75.6791 8.78955 75.7661 8.74411 76.0081 8.74833C76.7652 8.76239 77.5227 8.76715 78.28 8.74675C78.5632 8.73893 78.6129 8.82559 78.6073 9.06793C78.59 9.84611 78.6179 10.6253 78.5918 11.403C78.5823 11.6965 78.6906 11.7394 78.9677 11.7367C80.2439 11.7236 81.5206 11.7389 82.7968 11.7242C83.0621 11.721 83.1163 11.7994 83.1097 12.0281C83.0929 12.5938 83.0934 13.1604 83.1097 13.7265C83.1157 13.9329 83.0414 13.9725 82.8375 13.971C81.5183 13.9631 80.1986 13.9725 78.8794 13.9616C78.6542 13.96 78.5934 14.0096 78.5951 14.2248C78.6057 15.9028 78.6023 17.5813 78.6 19.2594C78.5995 19.8093 78.6631 20.3495 78.8906 20.8612C79.2639 21.7005 80.0595 22.125 81.1401 22.0718C81.814 22.0389 82.4665 21.9052 83.0978 21.6884C83.3013 21.6185 83.37 21.6603 83.394 21.8571C83.4605 22.4092 83.5421 22.9592 83.6197 23.5096C83.6348 23.6135 83.6583 23.6971 83.5008 23.7383C82.0117 24.1322 80.5103 24.4063 78.9643 24.0663C77.225 23.6835 76.2819 22.5864 75.8902 21.0116C75.6723 20.1369 75.6874 19.2469 75.6919 18.3575C75.6946 17.8922 75.6924 17.4273 75.6924 16.962Z" fill="white"/>
<path d="M51.674 13.3612C51.674 11.0663 51.6784 8.77155 51.6677 6.47667C51.6667 6.24849 51.7271 6.19311 51.9679 6.19829C52.7462 6.21393 53.525 6.21393 54.3039 6.19787C54.5463 6.19311 54.604 6.25061 54.6034 6.47773C54.5956 10.754 54.5973 15.0303 54.5967 19.3066C54.5967 19.8018 54.5979 20.2968 54.7247 20.7825C54.9202 21.5326 55.3873 21.8904 56.2192 21.9174C56.5434 21.9279 56.869 21.9332 57.1881 21.8658C57.3557 21.8307 57.4138 21.8787 57.4205 22.0428C57.4435 22.6283 57.4787 23.2137 57.5149 23.7986C57.5228 23.9178 57.501 23.9737 57.3541 23.9945C56.3444 24.1376 55.333 24.2264 54.3234 24.0222C52.8892 23.7317 52.1729 22.8095 51.8728 21.5351C51.7024 20.8102 51.6712 20.0744 51.6728 19.3354C51.6768 17.344 51.674 15.3526 51.674 13.3612" fill="white"/>
<path d="M100.832 17.8269C100.832 19.7479 100.826 21.6682 100.838 23.5887C100.84 23.8404 100.773 23.9114 100.501 23.9056C99.7124 23.8879 98.9229 23.8926 98.1335 23.9041C97.9329 23.9067 97.8809 23.8554 97.8809 23.6686C97.8865 19.7667 97.8865 15.8643 97.8814 11.9625C97.8809 11.7792 97.9251 11.7228 98.1295 11.7259C98.9301 11.7384 99.7303 11.7448 100.531 11.7233C100.812 11.716 100.837 11.8199 100.836 12.0351C100.829 13.9653 100.832 15.8962 100.832 17.8269" fill="white"/>
<path d="M99.3824 9.43201C98.3242 9.42726 97.5845 8.75414 97.5839 7.79577C97.5827 6.83846 98.3382 6.1627 99.3942 6.17623C100.433 6.18986 101.14 6.85981 101.131 7.8261C101.122 8.77295 100.399 9.43666 99.3824 9.43201" fill="white"/>
</svg>
