<svg width="239" height="256" viewBox="0 0 239 256" fill="none" xmlns="http://www.w3.org/2000/svg">
<path d="M180.463 206.853C138.508 241.179 82.1001 242.621 49.9521 211.671L62.955 227.88C93.1001 264.716 153.13 265.461 197.039 229.529C239.926 194.434 251.537 137.348 223.961 100.384L212.435 82.2559C234.429 119.807 221.541 173.234 180.463 206.853Z" fill="#2B2928"/>
<path d="M199.974 221.165C239.024 187.567 237.428 140.48 231.621 144.422C225.809 148.365 230.111 182.459 179.778 218.048C135.263 249.512 113.689 235.978 111.349 242.416C109.01 248.86 147.9 265.979 199.974 221.165" fill="#3A3636"/>
<path d="M110.132 87.6782C110.132 87.6782 119.352 93.8547 131.901 89.436C144.447 85.0159 161.473 104.559 151.62 112.921C141.771 121.291 100.012 86.9665 110.132 87.6782Z" fill="#F1F2F0"/>
<path d="M102.318 81.5346C102.318 81.5346 117.496 91.1967 135.08 83.9753C135.08 83.9753 136.393 81.163 133.603 82.015C130.811 82.8644 120.326 84.5796 106.307 79.8841C106.307 79.8841 98.3863 79.5772 102.318 81.5346Z" fill="#DADCDA"/>
<path d="M69.1135 71.6728C23.8277 108.768 12.7974 169.133 43.5674 206.752C74.4077 244.453 136.05 245.205 180.979 208.429C182.386 207.271 183.758 206.103 185.1 204.904C226.927 167.583 236.335 109.796 206.522 73.3467C175.682 35.6471 114.043 34.8928 69.1135 71.6728Z" fill="#3A3636"/>
<path d="M112.783 48.7134C126.003 47.5461 141.993 48.0004 144.776 56.4455C147.373 64.3263 137.676 65.0834 123.985 69.4002C113.899 72.5773 101.653 77.6926 90.5569 89.0078L194.466 195.59C228.155 158.486 233.956 106.886 206.522 73.3468C184.935 46.9583 148.259 38.699 112.783 48.7134" fill="#2B2928"/>
<path d="M53.9095 137.53C52.0704 146.667 47.6118 163.134 38.0103 161.708C32.2274 160.849 28.5782 153.571 26.5794 147.913C24.6069 169.314 30.0511 190.224 43.5674 206.753C65.0526 233.017 101.491 241.33 136.812 231.526C107.472 194.95 55.2324 130.965 53.9095 137.53Z" fill="#2B2928"/>
<path d="M4.93475 25.527C15.3979 39.4576 22.4734 45.7636 28.1682 53.592C33.863 61.4205 44.8533 69.6894 56.0819 59.4107C67.3104 49.132 63.0073 40.837 51.4663 30.221C39.928 19.6037 30.0513 9.18043 22.6138 2.51792C14.1163 -5.0944 -10.3959 5.11959 4.93475 25.527" fill="#3A3636"/>
<path d="M45.7849 62.6427C40.4287 63.3131 35.2364 61.1616 33.4248 55.3924C30.1844 45.0958 45.9294 27.498 58.1835 40.9125C62.788 45.9534 61.0481 52.0502 56.3747 57.1517C53.5459 60.2407 49.6241 62.1664 45.7849 62.6427" fill="#2C2929"/>
<path d="M45.6873 60.5009C41.3676 61.1093 37.2173 59.4533 35.838 54.8529C33.3699 46.6473 46.2791 32.3298 55.9535 42.9155C59.589 46.8896 58.1106 51.8039 54.2783 55.9555C51.9602 58.4677 48.7776 60.0645 45.6873 60.5009Z" fill="#3A3636"/>
<path d="M6.79821 6.56487C3.40226 9.59603 6.95239 19.1135 14.723 27.8229C22.4936 36.5296 31.5445 41.1328 34.9404 38.1016C38.3364 35.0719 34.7904 25.5571 27.0197 16.8491C19.2477 8.13964 10.1942 3.53508 6.79821 6.56487Z" fill="#484643"/>
<path d="M44.0478 58.3286L63.6747 80.3245C63.6747 80.3245 68.2187 72.3955 75.9714 68.0608C75.9714 68.0608 58.9022 51.538 55.4388 47.6534C50.8191 42.479 38.7054 51.4747 44.0478 58.3286Z" fill="#BDB9B5"/>
<path d="M46.0287 56.2816C42.2225 51.432 50.263 45.93 53.2969 48.9487C55.6054 51.2503 71.0392 65.7894 74.4517 68.9803C74.9459 68.6637 75.4511 68.354 75.9714 68.0608C75.9714 68.0608 58.9022 51.538 55.4388 47.6534C50.8191 42.479 38.7054 51.4747 44.0478 58.3286L63.6747 80.3245L64.4896 78.1385L46.0287 56.2816Z" fill="#9F9E9B"/>
<path d="M66.152 72.4561C66.152 72.4561 48.9712 52.9119 48.0779 51.8216C47.1804 50.7287 49.1103 48.2426 50.7732 49.8312C52.4347 51.4238 70.177 68.7229 70.177 68.7229C70.177 68.7229 67.5863 70.1876 66.152 72.4561" fill="#D7D0CA"/>
<path d="M82.9498 90.5151C44.551 121.943 36.2228 175.287 64.3554 209.664C73.8288 221.241 86.2357 229.176 99.9874 233.431C126.61 235.689 155.99 226.875 180.462 206.853C200.926 190.104 214.376 168.435 220.027 146.261C220.619 128.136 215.26 110.324 203.427 95.8644C175.293 61.4823 121.356 59.0884 82.9498 90.5151Z" fill="#57534F"/>
<path d="M186.091 96.9284C208.709 124.987 200.492 169.138 167.733 195.543C134.978 221.954 90.0845 220.614 67.4691 192.563C44.8497 164.507 53.069 120.356 85.824 93.9468C118.583 67.5377 163.474 68.873 186.091 96.9284V96.9284ZM82.9498 90.5151C44.551 121.943 36.2228 175.287 64.3554 209.664C73.8288 221.241 86.2357 229.176 99.9874 233.431C126.61 235.689 155.99 226.875 180.462 206.853C200.926 190.104 214.376 168.435 220.027 146.261C220.619 128.136 215.26 110.324 203.427 95.8644C175.293 61.4823 121.356 59.0884 82.9498 90.5151Z" fill="#464441"/>
<path d="M133.12 108.979C133.12 108.979 120.701 97.9939 106.313 111.718C91.9251 125.442 102.109 139.297 97.7603 147.144C93.4159 154.996 72.7759 168.561 87.048 188.472C101.324 208.385 118.709 199.487 123.796 204.211C128.887 208.937 144.972 211.795 151.629 204.092C154.639 200.605 161.258 201.564 169.162 201.381C178.74 201.157 190.201 199.25 199.413 185.717C216.224 161.008 187.313 150.63 188.98 140.759C190.647 130.881 187.187 113.053 168.854 108.414C145.74 102.571 145.141 114.133 133.12 108.979Z" fill="#3C3A38"/>
<path d="M132.276 109.655C132.276 109.655 120.543 99.3058 106.816 112.387C93.0907 125.47 102.687 138.558 98.5212 146.022C94.3558 153.485 74.6959 166.448 88.1475 185.26C101.599 204.065 118.147 195.547 122.955 200.002C127.761 204.454 143.013 207.077 149.372 199.742C152.247 196.426 158.526 197.307 166.03 197.09C175.123 196.83 186.013 194.966 194.827 182.089C210.904 158.577 183.509 148.875 185.146 139.509C186.78 130.142 183.58 113.25 166.199 108.943C144.287 103.519 143.661 114.484 132.276 109.655" fill="#FCEFAE"/>
<path d="M156.433 135.231C160.227 140.24 160.987 151.609 159.822 157.533C158.286 165.336 152.839 171.75 145.733 175.201C131.176 182.268 110.866 175.334 108.959 157.922C107.94 148.596 111.454 136.557 119.188 130.774C130.226 122.506 144.465 122.918 153.983 132.424C154.887 133.33 155.706 134.268 156.433 135.231Z" fill="#FCE485"/>
<path d="M152.109 136.854C155.301 141.063 155.942 150.641 154.961 155.626C153.667 162.196 149.082 167.591 143.101 170.495C130.848 176.446 113.753 170.611 112.149 155.958C111.287 148.103 114.247 137.968 120.755 133.099C130.051 126.144 142.036 126.487 150.045 134.49C150.809 135.256 151.495 136.042 152.109 136.854Z" fill="#F9AA1E"/>
<path d="M145.734 138.559C148.091 141.666 148.565 148.714 147.843 152.387C146.894 157.223 143.525 161.194 139.122 163.33C130.103 167.704 117.521 163.399 116.332 152.607C115.7 146.827 117.872 139.367 122.657 135.78C129.496 130.668 138.32 130.926 144.217 136.821C144.779 137.381 145.287 137.965 145.734 138.559ZM120.755 133.099C114.247 137.968 111.287 148.103 112.149 155.958C113.753 170.611 130.848 176.446 143.101 170.495C149.082 167.591 153.667 162.196 154.961 155.626C155.942 150.641 155.301 141.063 152.109 136.854C151.495 136.042 150.809 135.256 150.045 134.49C142.036 126.487 130.051 126.144 120.755 133.099" fill="#F1991C"/>
<path d="M183.175 144.987C192.015 148.14 201.637 168.678 192.767 181.622C183.892 194.562 168.212 196.499 156.095 194.922C149.48 194.065 148.736 195.651 147.533 197.649C146.531 199.309 145.211 201.253 139.931 202.319C128.297 204.663 123.288 199.426 121.227 195.243C119.167 191.056 116.314 197.612 104.965 195.024C93.6138 192.431 81.7589 176.895 87.9988 163.629C92.0955 154.917 97.844 149.348 101.31 146.553C103.123 145.093 102.911 142.418 102.433 141.28C100.124 135.786 100.985 128.201 102.336 123.064C102.638 121.925 103.02 120.836 103.484 119.812C106.142 113.892 111.362 109.886 117.866 108.189C128.999 105.28 132.401 116.975 138.56 114.496C144.714 112.016 166.396 104.051 178.749 120.144C191.102 136.24 174.332 141.829 183.175 144.987V144.987ZM166.199 108.943C144.287 103.519 143.661 114.484 132.276 109.655C132.276 109.655 120.543 99.3058 106.816 112.387C93.0907 125.47 102.687 138.558 98.5212 146.022C94.3558 153.485 74.6959 166.448 88.1475 185.26C101.599 204.065 118.147 195.547 122.955 200.002C127.761 204.454 143.013 207.077 149.372 199.742C152.247 196.426 158.526 197.307 166.03 197.09C175.123 196.83 186.013 194.966 194.827 182.089C210.904 158.577 183.509 148.875 185.146 139.509C186.78 130.142 183.58 113.25 166.199 108.943" fill="#DBB877"/>
<path d="M104.088 155.933C104.088 155.933 102.344 162.324 110.009 170.363C117.676 178.407 97.2772 187.569 92.3188 173.29C87.3564 159.01 103.697 149.989 104.088 155.933" fill="#FEFDE5"/>
<path d="M111.193 132.93C111.193 132.93 102.008 120.195 112.724 114.122C123.438 108.054 134.768 115.374 128.371 118.466C121.979 121.562 112.776 141.543 111.193 132.93Z" fill="#FEFDE5"/>
<path d="M142.964 121.964C142.964 121.964 148.85 119.767 161.144 134.519C173.437 149.273 181.953 125.108 166.511 117.084C151.076 109.065 137.993 120.302 142.964 121.964Z" fill="#FEFDE5"/>
<path d="M155.276 189.113C155.276 189.113 170.562 195.352 184.92 182.227C191.724 176.009 192.144 167.764 190.199 161.75C188.452 156.353 185.094 151.494 178.965 159.317C175.946 163.175 175.031 167.526 171.497 171.209C167.325 175.55 161.838 177.327 156.41 178.872C145.51 181.965 150.513 187.971 155.276 189.113" fill="#FEFDE5"/>
<path d="M114.509 187.53C114.509 187.53 121.55 184.739 127.298 193.065C133.045 201.392 136.718 186.655 132.443 182.492C128.17 178.329 111.486 182.259 114.509 187.53" fill="#FEFDE5"/>
<path d="M127.576 135.999C125.583 137.776 125.328 140.123 127.721 140.26C127.721 140.26 132.005 138.641 136.733 141.471C137.957 142.205 138.879 142.14 139.457 141.624C141.112 140.148 139.898 134.953 134.59 134.13C131.53 133.658 129.066 134.669 127.576 135.999" fill="#FBCE4D"/>
<path d="M65.8866 75.3112C24.7676 112.004 15.4828 168.758 44.7496 204.52C75.0324 241.527 135.62 242.214 179.81 206.053C224.352 169.663 235.238 110.28 205.026 73.362C174.743 36.3548 114.154 35.6665 69.9667 71.8271C68.5722 72.9656 67.215 74.1273 65.8866 75.3112V75.3112ZM185.257 204.108C183.907 205.311 182.53 206.488 181.115 207.65C136.042 244.526 74.1569 243.707 43.1528 205.823C12.2231 168.026 23.2438 107.463 68.6631 70.2303C113.727 33.3498 175.62 34.1716 206.622 72.057C236.588 108.677 227.203 166.68 185.257 204.108Z" fill="#302428"/>
<path d="M66.8563 76.4001C26.3211 112.569 17.1064 168.443 45.8749 203.596C75.6497 239.981 135.318 240.577 178.89 204.929C222.758 169.003 233.602 110.581 203.899 74.2816C174.124 37.8994 114.456 37.302 70.8855 72.9491C69.5117 74.0779 68.1696 75.2287 66.8563 76.4001V76.4001ZM186.229 205.19C184.862 206.413 183.469 207.605 182.038 208.776C136.346 246.16 73.5367 245.246 42.0302 206.747C10.5885 168.325 21.6917 106.818 67.7387 69.1044C113.432 31.7173 176.234 32.6299 207.746 71.1348C238.211 108.361 228.757 167.246 186.229 205.19Z" fill="#9F9E9B"/>
<path d="M203.898 74.2814C233.601 110.581 222.757 169.003 178.889 204.928C135.317 240.577 75.6492 239.981 45.8744 203.596C17.1059 168.443 26.3205 112.569 66.8558 76.3999C68.169 75.2285 69.5112 74.0777 70.885 72.9489C114.456 37.3018 174.123 37.8992 203.898 74.2814ZM68.3507 69.8503C22.791 107.159 11.8116 168.009 42.9148 206.023C74.0882 244.115 136.222 245.015 181.426 208.031C182.84 206.864 184.219 205.691 185.571 204.484C227.645 166.941 236.997 108.687 206.861 71.8587C175.687 33.7668 113.551 32.8665 68.3507 69.8503" fill="#BDB9B5"/>
<path d="M203.899 74.2815C233.602 110.581 222.757 169.003 178.889 204.928C135.317 240.577 75.6495 239.981 45.8747 203.596C17.1062 168.443 26.3209 112.569 66.8561 76.4C68.1694 75.2285 69.5115 74.0777 70.8853 72.949C114.456 37.3018 174.124 37.8992 203.899 74.2815ZM70.303 72.2345C68.9113 73.3757 67.5554 74.5375 66.2271 75.7213C25.2527 112.284 15.9389 168.761 45.0213 204.301C75.1154 241.075 135.434 241.678 179.473 205.642C223.817 169.332 234.776 110.271 204.756 73.5808C174.662 36.8063 114.343 36.1992 70.303 72.2345Z" fill="#9F9E9B"/>
<path d="M65.6147 75.0055C24.3319 111.842 15.0278 168.846 44.4323 204.778C74.8582 241.958 135.704 242.672 180.068 206.371C224.791 169.803 235.697 110.193 205.347 73.1031C174.921 35.9225 114.072 35.2095 69.7085 71.5063C68.3113 72.6544 66.9458 73.8175 65.6147 75.0055ZM184.989 203.804C183.643 205.006 182.265 206.177 180.855 207.333C135.961 244.069 74.3296 243.275 43.4687 205.566C12.6835 167.945 23.6643 107.597 68.9225 70.5496C113.815 33.8123 175.447 34.6065 206.306 72.313C236.131 108.765 226.767 166.521 184.989 203.804" fill="#D7D0CA"/>
</svg>
